<svg xmlns="http://www.w3.org/2000/svg" width="22.804" height="16.214" viewBox="0 0 22.804 16.214">
  <path id="Path_discord" data-name="Path / discord" d="M16.671,7.126A16.075,16.075,0,0,0,8.947,9.074,14.864,14.864,0,0,1,13.74,6.618l-.288-.288A10.653,10.653,0,0,0,8,8.363,26.717,26.717,0,0,0,5.271,19.695a7.391,7.391,0,0,0,5.895,2.846l1.2-1.524a6.442,6.442,0,0,1-3.455-2.338,14.963,14.963,0,0,0,15.516,0,6.442,6.442,0,0,1-3.455,2.338l1.2,1.524a7.391,7.391,0,0,0,5.895-2.846,24.634,24.634,0,0,0-.618-5.231,27.508,27.508,0,0,0-2.109-6.1A10.653,10.653,0,0,0,19.889,6.33l-.288.288a14.864,14.864,0,0,1,4.794,2.456,16.075,16.075,0,0,0-7.724-1.948m-3.506,6.42A2.058,2.058,0,0,1,15.146,15.7a2.08,2.08,0,0,1-1.982,2.151A2.077,2.077,0,0,1,11.2,15.7a2.056,2.056,0,0,1,1.965-2.151m7.063,0A2.069,2.069,0,0,1,22.21,15.7a2.08,2.08,0,0,1-1.982,2.151A2.077,2.077,0,0,1,18.263,15.7,2.056,2.056,0,0,1,20.228,13.546Z" transform="translate(-5.269 -6.33)" fill="#9f9f9f"/>
</svg>
