<?xml version="1.0" encoding="utf-8"?>
<!-- Generator: Adobe Illustrator 22.1.0, SVG Export Plug-In . SVG Version: 6.00 Build 0)  -->
<svg version="1.2" baseProfile="tiny" id="Layer_1" xmlns="http://www.w3.org/2000/svg" xmlns:xlink="http://www.w3.org/1999/xlink"
	 x="0px" y="0px" viewBox="0 0 5000 5000" xml:space="preserve">
<rect fill="#FFFFFF" width="5000" height="5000"/>
<g>
	<g>
		<polygon points="2499.7,1324.4 2499.7,1324.4 2499.7,1324.4 		"/>
		<polygon points="2499.7,1339.9 2499.7,2194 3208.7,2516.1 		"/>
	</g>
	<g>
		<polygon points="2499.7,2939.4 3204.3,2522.9 2499.7,2202.7 		"/>
		<polygon points="2499.7,2194 2499.7,2194 2499.7,2194 		"/>
	</g>
	<polygon points="3193.7,2684.9 2500,3094.5 2499.7,3094.3 2499.7,3662.2 	"/>
	<polygon points="1806.3,2684.9 2491.7,3650.2 2491.7,3089.6 	"/>
	<g>
		<polygon points="1778,2522 1778,2522 1778,2522 		"/>
		<polygon points="2491.7,2934.7 2491.7,2197.6 1786.9,2517.9 		"/>
	</g>
	<polygon points="1798.2,2504 2491.7,2188.8 2491.7,1353.2 	"/>
	<path d="M2500,3955.5c-196.5,0-387.1-38.5-566.6-114.4c-86.2-36.5-169.4-81.6-247.2-134.2c-77.1-52.1-149.5-111.9-215.4-177.7
		s-125.7-138.3-177.7-215.4c-52.6-77.8-97.7-161-134.2-247.2c-75.9-179.5-114.4-370.1-114.4-566.6s38.5-387.1,114.4-566.6
		c36.5-86.2,81.6-169.4,134.2-247.2c52.1-77.1,111.9-149.5,177.7-215.4s138.3-125.7,215.4-177.7c77.8-52.6,161-97.7,247.2-134.2
		c179.5-75.9,370.1-114.4,566.6-114.4s387.1,38.5,566.6,114.4c86.3,36.5,169.4,81.6,247.2,134.2c77.1,52.1,149.5,111.9,215.4,177.7
		s125.7,138.3,177.7,215.4c52.6,77.8,97.7,161,134.2,247.2c75.9,179.5,114.4,370.1,114.4,566.6s-38.5,387.1-114.4,566.6
		c-36.5,86.3-81.6,169.4-134.2,247.2c-52.1,77.1-111.9,149.5-177.7,215.4s-138.3,125.7-215.4,177.7c-77.8,52.6-161,97.7-247.2,134.2
		C2887.1,3917,2696.5,3955.5,2500,3955.5z M2500,1093.5c-775.5,0-1406.5,631-1406.5,1406.5s631,1406.5,1406.5,1406.5
		s1406.5-631,1406.5-1406.5S3275.5,1093.5,2500,1093.5z"/>
</g>
</svg>
