<svg id="MDI_eye-outline" data-name="MDI / eye-outline" xmlns="http://www.w3.org/2000/svg" width="24" height="24" viewBox="0 0 24 24">
  <g id="Boundary" fill="#fff" stroke="rgba(0,0,0,0)" stroke-width="1" opacity="0">
    <rect width="24" height="24" stroke="none"/>
    <rect x="0.5" y="0.5" width="23" height="23" fill="none"/>
  </g>
  <path id="Path_eye-outline" data-name="Path / eye-outline" d="M12,9a3,3,0,1,1-3,3,3,3,0,0,1,3-3m0-4.5A11.827,11.827,0,0,1,23,12,11.817,11.817,0,0,1,1,12,11.827,11.827,0,0,1,12,4.5M3.18,12a9.822,9.822,0,0,0,17.64,0A9.822,9.822,0,0,0,3.18,12Z" transform="translate(0 0.5)" fill="#fff"/>
</svg>
