<svg xmlns="http://www.w3.org/2000/svg" width="19.191" height="15.228" viewBox="0 0 19.191 15.228">
  <path id="Icon_awesome-medium-m" data-name="Icon awesome-medium-m" d="M3.272,7.607A.749.749,0,0,0,3.03,6.98L1.24,4.821V4.5H6.8l4.3,9.431L14.885,4.5h5.3v.321L18.658,6.289a.447.447,0,0,0-.171.429V17.51a.447.447,0,0,0,.171.429l1.5,1.468v.321H12.628v-.321l1.551-1.5c.151-.151.151-.2.151-.429V8.753L10.017,19.7H9.434L4.419,8.753v7.336a1,1,0,0,0,.278.841l2.016,2.444V19.7H1v-.317l2.016-2.448a.967.967,0,0,0,.258-.841Z" transform="translate(-0.998 -4.5)" fill="#9f9f9f"/>
</svg>
